<?xml version="1.0" encoding="UTF-8"?>
<svg width="613px" height="101px" viewBox="0 0 613 101" version="1.1" xmlns="http://www.w3.org/2000/svg" xmlns:xlink="http://www.w3.org/1999/xlink">
    <!-- Generator: Sketch 41.2 (35397) - http://www.bohemiancoding.com/sketch -->
    <title>Artboard</title>
    <desc>Created with Sketch.</desc>
    <defs></defs>
    <g id="Page-1" stroke="none" stroke-width="1" fill="none" fill-rule="evenodd">
        <g id="Artboard" fill="#333333">
            <path d="M58.1067065,9 C60.4967065,9.08 62.8867065,9.11 65.2767065,9.14 C65.3967065,18.13 65.0167065,27.13 65.4267065,36.11 C65.8667065,42.71 73.2367065,47.35 79.4367065,45.22 C84.1167065,43.92 86.6467065,39.32 87.5567065,34.86 C89.9767065,34.86 92.3967065,34.86 94.8167065,34.88 C94.1067065,40.51 91.8367065,46.24 86.9767065,49.54 C80.5667065,54.43 70.8167065,54.17 64.6767065,48.94 C60.4667065,45.62 58.0667065,40.32 58.0367065,34.98 C57.9967065,26.32 57.9567065,17.66 58.1067065,9 Z" id="Shape"></path>
            <path d="M101,9 C110.76,17.78 120.5,26.58 130.28,35.35 C130.28,26.59 130.29,17.83 130.28,9.06 L137.53,9.06 C137.52,23.68 137.56,38.3 137.52,52.91 C125.34,42 113.19,31.06 101.03,20.12 C101.03,16.41 101.03,12.7 101,9 Z" id="Shape"></path>
            <path d="M170.93,10 C175.84,19.78 180.73,29.57 185.62,39.36 C182.86,39.36 180.1,39.36 177.35,39.35 C175.22,35.02 173.08,30.7 170.86,26.42 C166.27,35.56 161.71,44.72 157.13,53.87 C154.41,53.86 151.7,53.86 149,53.87 C156.3,39.24 163.62,24.62 170.93,10 Z" id="Shape"></path>
            <path d="M195,10 L217,10 C217,12.5 216.99,15 217,17.5 C212.16,17.5 207.33,17.5 202.51,17.49 C202.49,29.66 202.51,41.83 202.5,54 L195,54 L195,10 Z" id="Shape"></path>
            <path d="M252.28,10 L259.52,10 L259.52,54 L252.27,54 C252.27,47.92 252.27,41.83 252.28,35.75 L230.27,35.75 L230.27,54 L223.02,54 C223.01,47.89 223.03,41.79 223,35.68 C225.57,33.27 227.76,30.37 230.68,28.37 C237.86,28.04 245.08,28.36 252.28,28.25 C252.27,22.17 252.27,16.08 252.28,10 Z" id="Shape"></path>
            <path d="M307.570381,10.4185084 C314.800381,8.92850843 322.130381,11.5385084 327.580381,16.3185084 C325.900381,18.0285084 324.210381,19.7285084 322.530381,21.4385084 C320.130381,20.0085084 317.790381,18.2885084 314.990381,17.7385084 C309.330381,16.4585084 303.030381,18.8885084 299.880381,23.7985084 C295.730381,29.5585084 296.820381,38.2185084 302.200381,42.8185084 C305.550381,46.3085084 310.850381,45.8085084 314.700381,48.3885084 C316.740381,49.6185084 318.670381,51.0185084 320.610381,52.4185084 C312.440381,55.4185084 302.700381,53.7985084 296.500381,47.5085084 C289.710381,40.9185084 287.900381,29.7485084 292.690381,21.4985084 C295.670381,15.7885084 301.400381,11.9585084 307.570381,10.4185084 Z" id="Shape"></path>
            <path d="M358.304688,10 L365.814687,10 C365.814687,23.67 365.834687,37.34 365.804688,51.01 C365.804688,51.76 365.794688,53.26 365.794688,54.01 L358.304688,54.01 C358.314687,47.92 358.304688,41.84 358.314687,35.76 L336.554688,35.76 L336.554688,54.01 L329.054688,54.01 C329.204687,48.07 328.734688,42.12 329.244688,36.2 C330.574687,33.97 332.674688,32.34 334.424688,30.45 C335.124688,29.72 335.824687,29 336.524688,28.26 C343.784688,28.25 351.044688,28.26 358.294688,28.26 C358.294688,22.17 358.294688,16.08 358.304688,10 Z" id="Shape"></path>
            <path d="M391.139789,10.6015489 C403.549789,7.40154893 417.029789,17.4115489 417.799789,30.1215489 C419.209789,42.1115489 408.769789,53.7415489 396.749789,53.8615489 C385.449789,54.6015489 374.769789,45.0215489 374.109789,33.7515489 C372.969789,23.2115489 380.849789,12.7715489 391.139789,10.6015489 Z M390.949789,18.2515489 C399.219789,15.0115489 409.339789,20.9815489 410.329789,29.8315489 C411.899789,38.3015489 404.449789,47.0515489 395.789789,46.5115489 C388.019789,46.8215489 381.009789,39.6915489 381.419789,31.9415489 C381.129789,25.9115489 385.379789,20.2615489 390.949789,18.2515489 Z" id="Combined-Shape"></path>
            <path d="M427.079993,10.13 C436.799993,18.91 446.549993,27.65 456.269993,36.43 C456.329993,27.62 456.279993,18.81 456.299993,10 L463.549993,10 C463.559993,24.69 463.529993,39.38 463.579993,54.07 C453.089993,44.62 442.609993,35.17 432.099993,25.75 C430.439993,24.18 428.509993,22.84 427.169993,20.98 C426.849993,17.37 427.079993,13.74 427.079993,10.13 Z" id="Shape"></path>
            <path d="M487.952208,10.8848064 C495.542208,8.53480641 503.872208,11.0348064 509.572208,16.3848064 C507.872208,18.0948064 506.162208,19.8048064 504.492208,21.5348064 C500.982208,18.6948064 496.512208,16.7348064 491.922208,17.5448064 C485.252208,18.2848064 479.772208,24.2848064 479.422208,30.9348064 C478.772208,37.9048064 484.002208,45.0148064 490.982208,46.1148064 C495.462208,46.6748064 498.942208,49.8548064 502.382208,52.4248064 C496.952208,54.2448064 490.882208,54.5648064 485.582208,52.1548064 C476.892208,48.6848064 471.072208,39.1748064 472.122208,29.8448064 C472.852208,21.0448064 479.502208,13.2848064 487.952208,10.8848064 Z" id="Shape"></path>
            <path d="M527.821217,10.6669248 C540.281217,7.27692477 553.991217,17.2769248 554.771217,30.0969248 C556.241217,42.2669248 545.461217,53.9569248 533.291217,53.8769248 C521.841217,54.3669248 511.231217,44.3769248 511.041217,32.9169248 C510.371217,22.7369248 517.951217,12.9469248 527.821217,10.6669248 Z M528.551217,18.0569248 C537.081217,15.0969248 547.141217,21.8569248 547.391217,30.9169248 C548.321217,38.8469248 541.391217,46.6169248 533.391217,46.5069248 C525.791217,47.1369248 518.681217,40.6169248 518.381217,33.0669248 C517.741217,26.4869248 522.191217,19.8869248 528.551217,18.0569248 Z" id="Combined-Shape"></path>
            <path d="M268.01,10 C270.42,12.4 272.83,14.82 275.25,17.22 L275.25,46.47 C272.84,48.89 270.42,51.3 268,53.71 C268,39.14 268,24.57 268.01,10 Z" id="Shape"></path>
            <path d="M181,46.01 C183.69,46 186.4,46 189.1,46 C190.31,48.42 191.52,50.83 192.74,53.25 C190.02,53.25 187.32,53.25 184.61,53.26 C183.4,50.84 182.19,48.43 181,46.01 Z" id="Shape"></path>
            <path d="M221,74.0044444 C223.95,74.0044444 226.91,73.9944444 229.87,74.0044444 C230.52,74.6344444 231.19,75.2744444 231.85,75.9144444 C231.79,78.1744444 231.65,80.4244444 231.35,82.6644444 C231.68,85.1344444 231.76,87.6344444 231.85,90.1244444 C231.15,90.7544444 230.46,91.3844444 229.77,92.0144444 C226.86,92.0144444 223.94,92.0044444 221.03,91.9844444 C220.98,85.9844444 221.01,79.9944444 221,74.0044444 Z M224.01,76.9944444 C225.58,77.0044444 227.17,77.0144444 228.75,77.0444444 C228.74,78.4044444 228.72,79.7844444 228.71,81.1544444 C227.14,81.2044444 225.58,81.2544444 224.02,81.3044444 C224.01,79.8644444 224,78.4244444 224.01,76.9944444 Z M224.01,84.2244444 C225.56,84.2544444 227.1,84.2844444 228.66,84.3344444 C228.71,85.7844444 228.75,87.2444444 228.8,88.7144444 C227.2,88.7344444 225.6,88.7544444 224.01,88.7744444 L224.01,84.2244444 Z" id="Combined-Shape"></path>
            <path d="M241.05,73.03 C241.86,73.04 243.47,73.05 244.27,73.06 C244.33,77.97 244.31,82.88 244.31,87.79 C245.97,87.79 247.63,87.79 249.31,87.8 C249.31,82.9 249.3,78.01 249.32,73.12 C250.39,73.07 251.47,73.04 252.56,73 C252.56,78.29 252.55,83.57 252.57,88.86 C251.88,89.57 251.19,90.29 250.5,91.01 C247.25,90.93 243.43,91.9 241,89.11 C241.1,83.75 241.04,78.39 241.05,73.03 Z" id="Shape"></path>
            <path d="M262.03,74.05 C262.83,74.03 264.43,74.01 265.22,74 C265.28,80 265.28,86.01 265.22,92.02 C264.42,92.01 262.83,91.99 262.03,91.98 C261.99,86 261.99,80.02 262.03,74.05 Z" id="Shape"></path>
            <path d="M274.048805,74.03 C274.848805,74.02 276.458805,74.01 277.258805,74 L277.258805,88.75 C279.928805,88.76 282.598805,88.77 285.278805,88.81 C285.258805,89.6 285.238805,91.19 285.218805,91.99 C281.508805,92.02 277.788805,92.02 274.078805,91.99 C273.958805,86 273.998805,80.01 274.048805,74.03 Z" id="Shape"></path>
            <path d="M294.005764,74 L302.875764,74 C303.585764,74.7 304.285764,75.41 305.005764,76.11 C304.995764,80.74 305.025764,85.36 304.965764,89.98 C304.225764,90.65 303.495764,91.33 302.775764,92.01 C299.855764,92 296.935764,92 294.025764,91.98 C293.975764,85.98 294.015764,79.99 294.005764,74 Z M297.005764,76.97 C298.555764,77 300.125764,77.04 301.695764,77.09 C301.775764,80.96 301.765764,84.84 301.735764,88.72 C300.155764,88.74 298.575764,88.75 297.005764,88.77 C296.995764,84.83 296.995764,80.9 297.005764,76.97 Z" id="Combined-Shape"></path>
            <path d="M314.0025,74 L317.0025,74 C316.9825,80 317.0325,85.99 316.9625,91.99 L314.0425,91.99 C313.9725,85.99 314.0125,80 314.0025,74 Z" id="Shape"></path>
            <path d="M327.001517,74 L330.781517,74 C332.161517,77.6 333.511517,81.21 334.961517,84.79 C335.021517,81.19 335.001517,77.6 335.001517,74 C335.801517,74 337.411517,74.01 338.211517,74.01 C338.251517,80 338.301517,85.99 338.171517,91.99 C337.351517,91.99 335.701517,92.01 334.871517,92.01 C333.151517,88.14 331.641517,84.18 330.071517,80.26 C329.961517,84.16 330.011517,88.07 329.971517,91.98 L327.021517,91.98 C326.981517,85.98 327.011517,79.99 327.001517,74 Z" id="Shape"></path>
            <path d="M348.91,74 L356.42,74 C357.04,74.63 357.68,75.27 358.32,75.91 C358.3,77.1 358.29,78.3 358.29,79.5 C357.6,79.5 356.23,79.5 355.55,79.51 C355.36,78.67 355.17,77.83 354.99,77 C353.38,77 351.77,76.99 350.18,77 C349.99,80.91 350.03,84.83 350.08,88.75 C351.8,88.75 353.52,88.75 355.25,88.74 C355.28,87.58 355.3,86.43 355.34,85.28 C354.64,85.26 353.25,85.24 352.55,85.23 L352.55,82.25 L358.3,82.25 C358.29,84.86 358.3,87.47 358.31,90.08 C357.67,90.72 357.04,91.36 356.42,92.01 C353.2,91.83 349.38,92.9 347,90.11 C347.09,85.37 347.05,80.64 347.05,75.91 C347.52,75.43 348.44,74.48 348.91,74 Z" id="Shape"></path>
            <path d="M368.01,88 C369.09,88.02 370.17,88.05 371.26,88.09 C371.2,89.24 371.16,90.39 371.12,91.54 C370.34,91.53 368.78,91.5 368,91.49 C368,90.32 368,89.16 368.01,88 Z" id="Shape"></path>
            <path d="M380,88 C381,88 382,88 383.01,88.01 C383,89.17 382.99,90.34 383,91.51 C382.26,91.5 380.78,91.47 380.04,91.46 C380.02,90.3 380.01,89.15 380,88 Z" id="Shape"></path>
            <path d="M392,88.01 C392.99,88 393.99,88 394.99,88 C394.99,89.17 394.99,90.34 395,91.52 C394,91.49 393.01,91.47 392.03,91.44 C392.01,90.29 392,89.15 392,88.01 Z" id="Shape"></path>
        </g>
    </g>
</svg>